# xmcd
#
# Track frame offsets: 
#        150
#        11857
#        22745
#        36357
#        44082
#        55914
#        67069
#        77812
#        87145
#        94700
#        105650
#        115008
#        123553
#        132240
#
# Disc length: 1925 seconds
#
# Revision: 0
# Processed by: cddbd v1.5.2PL0 Copyright (c) Steve Scherf et al.
# Submitted via: ExactAudioCopy v0.95b3
#
DISCID=ba07830e
DTITLE=The Beatles  - Way Beyond Compare - Episode 06 Decca Sessions (
DTITLE=1 January, 1962)  FLAC
DYEAR=1900
DGENRE=
TTITLE0=Like Dreamers Do (mono)
TTITLE1=Money (That's What I Want) (mono
TTITLE2=Till There Was You (mono)
TTITLE3=The Sheik Of Araby (mono)
TTITLE4=To Know Her Is To Love Her (mono)
TTITLE5=Take Good Care Of My Baby (mono)
TTITLE6=Memphis, Tennessee (mono)
TTITLE7=Sure To Fall In Love With You (mono)
TTITLE8=Hello Little Girl (mono)
TTITLE9=Three Cool Cats (mono)
TTITLE10=Crying, Waiting, Hoping (mono)
TTITLE11=Love Of The Loved (mono)
TTITLE12=September In The Rain (mono)
TTITLE13=Besame Mucho (mono)
EXTD=
EXTT0=
EXTT1=
EXTT2=
EXTT3=
EXTT4=
EXTT5=
EXTT6=
EXTT7=
EXTT8=
EXTT9=
EXTT10=
EXTT11=
EXTT12=
EXTT13=
PLAYORDER=
